<?xml version="1.0" encoding="iso-8859-1"?>
<!-- Generator: Adobe Illustrator 18.0.0, SVG Export Plug-In . SVG Version: 6.00 Build 0)  -->
<!DOCTYPE svg PUBLIC "-//W3C//DTD SVG 1.1//EN" "http://www.w3.org/Graphics/SVG/1.1/DTD/svg11.dtd">
<svg version="1.1" id="Layer_1" xmlns="http://www.w3.org/2000/svg" xmlns:xlink="http://www.w3.org/1999/xlink" x="0px" y="0px"
	 viewBox="0 0 120 120" style="enable-background:new 0 0 120 120;" xml:space="preserve">
<path d="M66,120H46c-1.104,0-2-0.9-2-2V68H26c-1.104,0-2-0.9-2-2V46c0-1.104,0.896-2,2-2h18V24.724C44,11.092,55.54,0,69.728,0H94
	c1.1,0,2,0.896,2,2v16c0,1.104-0.9,2-2,2H79.468C73.648,20,68,24.376,68,29.032V44h24.084c0.62,0,1.22,0.296,1.588,0.796
	s0.5,1.152,0.324,1.756l-5.752,20C88.008,67.408,87.228,68,86.336,68H68v50C68,119.1,67.1,120,66,120z M48,116h16V66
	c0-1.1,0.9-2,2-2h18.832l4.596-16H66c-1.1,0-2-0.896-2-2V29.032C64,20.948,72.6,16,79.468,16H92V4H69.728
	C57.948,4,48,13.492,48,24.724V46c0,1.104-0.896,2-2,2H28v16h18c1.104,0,2,0.9,2,2C48,66,48,116,48,116z"/>
</svg>
