<?xml version="1.0" encoding="iso-8859-1"?>
<!-- Generator: Adobe Illustrator 18.0.0, SVG Export Plug-In . SVG Version: 6.00 Build 0)  -->
<!DOCTYPE svg PUBLIC "-//W3C//DTD SVG 1.1//EN" "http://www.w3.org/Graphics/SVG/1.1/DTD/svg11.dtd">
<svg version="1.1" id="Layer_1" xmlns="http://www.w3.org/2000/svg" xmlns:xlink="http://www.w3.org/1999/xlink" x="0px" y="0px"
	 viewBox="0 0 120 120" style="enable-background:new 0 0 120 120;" xml:space="preserve">
<path d="M38.3,59.5c-17.552,0-29.344-11.792-29.344-29.344C8.956,11.032,20.54,0.5,41.58,0.5H69.5c1.1,0,2,0.896,2,2s-0.9,2-2,2
	H41.58c-18.728,0-28.624,8.872-28.624,25.656c0,15.396,9.948,25.344,25.344,25.344c10.584,0,20.58-9.692,20.676-9.792
	c0.788-0.776,2.052-0.76,2.828,0.024c0.772,0.788,0.764,2.052-0.02,2.828C61.332,49.004,50.54,59.5,38.3,59.5z"/>
<path d="M113.5,60.5h-36c-1.1,0-2-0.896-2-2s0.9-2,2-2h36c1.1,0,2,0.896,2,2S114.6,60.5,113.5,60.5z"/>
<path d="M95.5,78.5c-1.1,0-2-0.9-2-2v-36c0-1.104,0.9-2,2-2s2,0.896,2,2v36C97.5,77.6,96.6,78.5,95.5,78.5z"/>
<path d="M41.188,119.5C16.5,119.5,4.5,112.328,4.5,97.58c0-14.648,12.316-22.08,36.608-22.08c4.864,0,10.14,0.4,14.344,0.816
	c-0.128-0.084-0.256-0.164-0.388-0.248c-5.824-3.688-11.32-7.172-11.32-13.672c0-5.716,4.044-8.476,7.956-11.148
	c5.748-3.92,12.252-8.36,12.252-23.2C63.952,15.004,51.708,4.5,41.576,4.5c-1.104,0-2-0.896-2-2s0.896-2,2-2
	c13.312,0,26.376,13.644,26.376,27.548c0,16.952-8.088,22.476-13.996,26.504c-4.084,2.784-6.212,4.4-6.212,7.832
	c0,4.096,3.596,6.584,9.46,10.304c2.32,1.468,4.824,3.056,7.144,4.952c0.044,0.032,0.084,0.064,0.116,0.092
	c4.72,3.9,8.644,9.116,8.644,17.336C73.108,111.512,62.668,119.5,41.188,119.5z M41.112,79.5c-21.64,0-32.608,6.084-32.608,18.08
	c0,12.064,10.692,17.92,32.688,17.92c19.312,0,27.916-6.296,27.916-20.42c0-6.44-2.9-10.616-6.788-13.928
	C59.888,80.816,49.668,79.5,41.112,79.5z"/>
</svg>
